<?xml version="1.0" encoding="UTF-8"?>
<!--Generator: Apple Native CoreSVG 175.5-->
<!DOCTYPE svg
PUBLIC "-//W3C//DTD SVG 1.1//EN"
       "http://www.w3.org/Graphics/SVG/1.1/DTD/svg11.dtd">
<svg version="1.1" xmlns="http://www.w3.org/2000/svg" xmlns:xlink="http://www.w3.org/1999/xlink" width="15.9521" height="16.0938">
 <g>
  <rect height="16.0938" opacity="0" width="15.9521" x="0" y="0"/>
  <path d="M1.5625 15.9521C2.41211 15.9521 3.10547 15.2539 3.10547 14.4092C3.10547 13.5547 2.42188 12.8564 1.5625 12.8564C0.712891 12.8564 0 13.5791 0 14.4385C0 15.2539 0.727539 15.9521 1.5625 15.9521ZM0.0732422 9.56543C0.0732422 10.1514 0.551758 10.625 1.1377 10.625C3.44238 10.625 5.32715 12.5098 5.32715 14.8145C5.32715 15.4004 5.80078 15.8789 6.38672 15.8789C6.96777 15.8789 7.44629 15.4004 7.44629 14.8145C7.44629 11.3379 4.60449 8.50586 1.1377 8.50586C0.551758 8.50586 0.0732422 8.98438 0.0732422 9.56543ZM0.0732422 5.38086C0.0732422 5.9668 0.551758 6.44043 1.1377 6.44043C5.81543 6.44043 9.51172 10.1367 9.51172 14.8145C9.51172 15.4004 9.98535 15.8789 10.5713 15.8789C11.1572 15.8789 11.6309 15.4004 11.6309 14.8145C11.6309 8.96484 6.9873 4.32129 1.1377 4.32129C0.551758 4.32129 0.0732422 4.7998 0.0732422 5.38086ZM0.0732422 1.05957C0.0732422 1.64551 0.551758 2.12402 1.1377 2.12402C8.19336 2.12402 13.8281 7.75879 13.8281 14.8145C13.8281 15.4004 14.3066 15.8789 14.8926 15.8789C15.4785 15.8789 15.9521 15.4004 15.9521 14.8145C15.9521 6.5918 9.36035 0 1.1377 0C0.551758 0 0.0732422 0.473633 0.0732422 1.05957Z" fill="#000000" fill-opacity="0.85"/>
 </g>
</svg>
